<?xml version="1.0" standalone="no"?>
<!DOCTYPE svg PUBLIC "-//W3C//DTD SVG 20010904//EN"
 "http://www.w3.org/TR/2001/REC-SVG-20010904/DTD/svg10.dtd">
<svg version="1.0" xmlns="http://www.w3.org/2000/svg"
 width="401.000000pt" height="125.000000pt" viewBox="0 0 401.000000 125.000000"
 preserveAspectRatio="xMidYMid meet">

<g transform="translate(0.000000,125.000000) scale(0.100000,-0.100000)"
fill="#000000" stroke="none">
<path d="M199 1007 c-46 -43 -82 -91 -113 -153 -33 -66 -33 -75 7 -100 198
-129 377 -384 415 -592 12 -65 8 -62 -32 30 -68 157 -199 310 -351 410 l-90
59 -3 -27 c-6 -43 17 -151 44 -212 69 -156 226 -280 399 -317 272 -57 595 212
595 496 l0 58 -52 -30 c-162 -96 -306 -253 -377 -412 -54 -120 -52 -117 -46
-72 29 200 184 436 387 586 l67 50 -14 40 c-19 53 -75 135 -125 184 l-42 40
-71 -76 c-118 -124 -197 -292 -230 -485 l-13 -79 -18 93 c-20 110 -61 229
-111 318 -42 74 -121 172 -163 203 l-29 20 -34 -32z"/>
<path d="M2310 658 l0 -278 60 0 60 0 0 181 0 181 142 -181 142 -181 58 0 58
0 0 275 0 275 -60 0 -60 0 0 -171 c0 -136 -3 -169 -12 -161 -7 6 -69 82 -138
170 l-125 160 -63 4 -62 3 0 -277z"/>
<path d="M1480 654 l0 -275 149 3 c133 3 153 5 177 24 44 32 66 68 71 117 7
56 -20 104 -71 132 l-34 18 34 32 c30 29 34 38 34 83 0 40 -5 57 -26 82 -45
53 -70 60 -209 60 l-125 0 0 -276z m232 159 c46 -41 6 -103 -67 -103 l-45 0 0
60 0 60 47 0 c29 0 53 -6 65 -17z m11 -214 c28 -15 37 -28 37 -56 0 -42 -33
-63 -100 -63 l-60 0 0 65 0 65 51 0 c28 0 60 -5 72 -11z"/>
<path d="M2030 655 l0 -275 55 0 55 0 0 275 0 275 -55 0 -55 0 0 -275z"/>
<path d="M3124 873 c-12 -32 -60 -156 -107 -275 l-85 -218 64 0 63 0 17 55 18
56 110 -3 109 -3 17 -50 17 -50 61 -3 c34 -2 62 1 62 5 0 4 -47 127 -104 273
l-104 265 -59 3 -58 3 -21 -58z m115 -186 c17 -49 31 -90 31 -93 0 -2 -29 -4
-65 -4 -36 0 -65 4 -65 9 0 14 62 183 65 179 2 -2 17 -43 34 -91z"/>
<path d="M3590 655 l0 -275 60 0 60 0 0 105 c0 102 1 105 23 105 17 0 40 -26
96 -105 l74 -105 54 0 c52 0 53 1 53 29 0 20 -20 55 -69 118 l-69 89 33 27
c40 32 59 84 52 144 -5 51 -29 88 -77 121 -30 20 -45 22 -161 22 l-129 0 0
-275z m209 164 c20 -7 33 -20 37 -35 15 -58 -20 -94 -91 -94 l-35 0 0 70 0 70
29 0 c15 0 42 -5 60 -11z"/>
</g>
</svg>
